<svg width="32" height="32" viewBox="0 0 32 32" fill="none" xmlns="http://www.w3.org/2000/svg">
  <rect width="32" height="32" rx="8" fill="#1ec070"/>
  <path d="M16 8C14.5833 8 13.3333 8.44444 12.25 9.33333C11.1667 10.2222 10.5 11.3889 10.25 12.8333H11.9167C12.1667 11.8889 12.6667 11.1111 13.5 10.5C14.25 9.88889 15.0833 9.58333 16 9.58333C17.3333 9.58333 18.4167 10.0556 19.25 11C20.0833 11.9444 20.5 13.1111 20.5 14.5C20.5 15.8889 20.0833 17.0556 19.25 18C18.4167 18.9444 17.3333 19.4167 16 19.4167C15.0833 19.4167 14.25 19.1111 13.5 18.5C12.6667 17.8889 12.1667 17.1111 11.9167 16.1667H10.25C10.5 17.6111 11.1667 18.7778 12.25 19.6667C13.3333 20.5556 14.5833 21 16 21C17.8333 21 19.3333 20.3611 20.5 19.0833C21.6667 17.8056 22.25 16.2778 22.25 14.5C22.25 12.7222 21.6667 11.1944 20.5 9.91667C19.3333 8.63889 17.8333 8 16 8Z" fill="white"/>
  <path d="M15.1667 16.1667L19.6667 14.5L15.1667 12.8333V16.1667ZM16 7C13.7917 7 11.9306 7.76389 10.4167 9.29167C8.90278 10.8194 8.14583 12.6667 8.14583 14.8333C8.14583 17.0556 8.90278 18.9167 10.4167 20.4167C11.9306 21.9167 13.7917 22.6667 16 22.6667C17.5833 22.6667 19.0139 22.25 20.2917 21.4167C21.5694 20.5833 22.5556 19.5 23.25 18.1667L21.5833 17.1667C21.0278 18.1667 20.2778 18.9444 19.3333 19.5C18.3889 20.0556 17.2778 20.3333 16 20.3333C14.3333 20.3333 12.9306 19.7639 11.7917 18.625C10.6528 17.4861 10.0833 16.0833 10.0833 14.4167C10.0833 12.8056 10.6389 11.4444 11.75 10.3333C12.8611 9.22222 14.25 8.66667 15.9167 8.66667C17.3056 8.66667 18.5556 9.09722 19.6667 9.95833C20.7778 10.8194 21.5278 11.9167 21.9167 13.25H16V15.1667H24.3333L24.4167 14.5C24.4167 12.3333 23.6667 10.5 22.1667 9C20.6667 7.5 18.7222 6.75 16.3333 6.75C16.2778 6.75 16.1667 6.75 16 6.75C15.8333 6.75 15.7222 6.75 15.6667 6.75H16V7Z" fill="white"/>
</svg> 